<svg xmlns="http://www.w3.org/2000/svg" version="1.1" xmlns:xlink="http://www.w3.org/1999/xlink" xmlns:svgjs="http://svgjs.dev/svgjs" width="1000" height="1000" viewBox="0 0 1000 1000"><rect width="1000" height="1000" fill="#000000"></rect><g transform="matrix(0.7,0,0,0.7,149.57575757575756,282.1265587044535)"><svg viewBox="0 0 396 247" data-background-color="#ffffff" preserveAspectRatio="xMidYMid meet" height="623" width="1000" xmlns="http://www.w3.org/2000/svg" xmlns:xlink="http://www.w3.org/1999/xlink"><g id="tight-bounds" transform="matrix(1,0,0,1,0.2400000000000091,-0.09999999999999432)"><svg viewBox="0 0 395.52 247.2" height="247.2" width="395.52"><g><svg></svg></g><g><svg viewBox="0 0 395.52 247.2" height="247.2" width="395.52"><g transform="matrix(1,0,0,1,75.54432,105.08496080618072)"><svg viewBox="0 0 244.43135999999998 37.03007838763856" height="37.03007838763856" width="244.43135999999998"><g><svg viewBox="0 0 244.43135999999998 37.03007838763856" height="37.03007838763856" width="244.43135999999998"><g><svg viewBox="0 0 244.43135999999998 37.03007838763856" height="37.03007838763856" width="244.43135999999998"><g><svg viewBox="0 0 244.43135999999998 37.03007838763856" height="37.03007838763856" width="244.43135999999998"><g id="textblocktransform"><svg viewBox="0 0 244.43135999999998 37.03007838763856" height="37.03007838763856" width="244.43135999999998" id="textblock"><g><svg viewBox="0 0 244.43135999999998 37.03007838763856" height="37.03007838763856" width="244.43135999999998"><g transform="matrix(1,0,0,1,0,0)"><svg width="244.43135999999998" viewBox="-4 -56.150001525878906 436.04998779296875 66.05999755859375" height="37.03007838763856" data-palette-color="#a437db"><path d="M48.68-44.19L48.68-44.19Q48.68-42.48 48.05-40.89 47.41-39.31 47.12-37.65L47.12-37.65Q46.04-36.23 45.12-34.72 44.19-33.2 43.21-31.69 42.24-30.18 41.16-28.78 40.09-27.39 38.72-26.27L38.72-26.27Q38.77-26.22 38.77-26.07L38.77-26.07Q38.77-25.78 38.5-25.61 38.23-25.44 38.33-25.2L38.33-25.2Q37.11-23.93 35.94-22.71 34.77-21.48 33.79-19.97L33.79-19.97Q32.71-19.43 32.03-18.21L32.03-18.21Q31.74-18.21 31.59-18.09 31.45-17.97 31.2-17.87L31.2-17.87Q29.64-15.97 27.93-14.26 26.22-12.55 24.27-11.13L24.27-11.13Q23.54-10.6 22.8-10.16 22.07-9.72 21.39-9.23L21.39-9.23Q20.95-8.94 20.53-8.54 20.12-8.15 19.68-7.81L19.68-7.81Q18.26-6.59 16.89-5.79 15.53-4.98 13.67-4.69L13.67-4.69Q13.53-4.15 13.53-3.52L13.53-3.52 13.53-2.34Q13.53-1.76 13.48-1.15 13.43-0.54 13.13 0L13.13 0 13.13 0.15Q13.13 0.63 13.38 1.1 13.62 1.56 13.62 2.05L13.62 2.05Q13.62 2.39 13.28 2.64L13.28 2.64 14.55 2.64Q14.55 3.32 14.97 3.81 15.38 4.3 15.38 4.54L15.38 4.54Q15.38 5.37 15.21 6.37 15.04 7.37 14.21 7.71L14.21 7.71 14.21 8.01Q14.21 8.5 14.11 8.96 14.01 9.42 13.67 9.86L13.67 9.86Q13.38 9.86 13.11 9.89 12.84 9.91 12.6 9.91L12.6 9.91Q10.55 9.91 8.94 8.94L8.94 8.94Q8.4 7.67 8.23 6.32 8.06 4.98 8.06 3.61L8.06 3.61Q8.06 0.93 8.45-1.71 8.84-4.35 9.08-6.98L9.08-6.98 9.81-8.4Q9.91-9.77 10.16-11.16 10.4-12.55 10.64-13.92 10.89-15.28 11.06-16.65 11.23-18.02 11.18-19.38L11.18-19.38Q11.57-20.21 11.74-21.14 11.91-22.07 11.91-22.95L11.91-22.95Q11.91-23.44 11.87-23.93 11.82-24.41 11.57-24.85L11.57-24.85Q11.87-25.05 11.96-25.34 12.06-25.63 12.26-25.88L12.26-25.88Q12.4-27.78 12.5-29.66 12.6-31.54 12.6-33.4L12.6-33.4Q12.6-34.42 12.55-35.42 12.5-36.43 12.4-37.45L12.4-37.45Q12.35-37.84 12.23-38.38 12.11-38.92 12.11-39.21L12.11-39.21Q12.11-39.6 12.16-40.01 12.21-40.43 12.21-40.87L12.21-40.87Q12.21-41.36 12.11-41.82 12.01-42.29 11.77-42.68L11.77-42.68Q9.42-41.99 7.57-40.84 5.71-39.7 3.81-38.28L3.81-38.28Q3.03-37.74 2.1-37.01 1.17-36.28 0.34-35.89L0.34-35.89Q0.2-35.79-0.02-35.77-0.24-35.74-0.39-35.74L-0.39-35.74Q-0.93-35.74-1.37-35.82-1.81-35.89-2.25-35.89L-2.25-35.89Q-2.93-36.57-3.86-36.96L-3.86-36.96Q-4-37.55-4-38.23L-4-38.23Q-4-38.92-3.88-39.55-3.76-40.19-3.52-40.82L-3.52-40.82Q-2.93-41.02-2.27-41.26-1.61-41.5-1-41.82-0.39-42.14 0.1-42.55 0.59-42.97 0.88-43.6L0.88-43.6Q1.17-43.46 1.42-43.46L1.42-43.46Q1.66-43.46 1.86-43.51 2.05-43.55 2.29-43.6L2.29-43.6Q3.17-44.14 4.08-44.73 4.98-45.31 5.96-45.7L5.96-45.7Q6.25-45.8 6.3-45.95 6.35-46.09 6.3-46.39L6.3-46.39Q7.42-46.73 8.64-47.19 9.86-47.66 10.69-48.49L10.69-48.49 11.57-48.49Q12.3-49.02 13.13-49.37 13.96-49.71 14.82-50.02 15.67-50.34 16.5-50.71 17.33-51.07 18.07-51.66L18.07-51.66Q18.36-51.76 18.55-51.76L18.55-51.76Q18.8-51.76 19.09-51.66L19.09-51.66Q19.58-51.9 19.92-52.25L19.92-52.25 20.7-53.03Q21.48-53.03 22.12-53.17 22.75-53.32 23.34-53.56 23.93-53.81 24.49-54.13 25.05-54.44 25.73-54.79L25.73-54.79Q26.03-54.69 26.17-54.57 26.32-54.44 26.66-54.44L26.66-54.44Q27.15-54.79 27.71-54.96 28.27-55.13 28.86-55.22 29.44-55.32 30-55.47 30.57-55.62 31.01-56.01L31.01-56.01Q32.57-56.01 34.16-56.08 35.74-56.15 37.3-56.15L37.3-56.15Q39.55-56.15 41.87-55.81 44.19-55.47 46.04-54.1L46.04-54.1Q46.78-52.34 48.14-51.12L48.14-51.12Q48.24-50.59 48.36-50.12 48.49-49.66 48.68-49.22L48.68-49.22Q48.34-48.49 48.34-47.61L48.34-47.61Q48.34-46.73 48.51-45.87 48.68-45.02 48.68-44.19ZM44.14-45.36L44.14-45.36Q43.9-45.8 43.82-46.36 43.75-46.92 43.8-47.46L43.8-47.46Q43.16-47.95 42.82-48.73 42.48-49.51 41.85-49.9L41.85-49.9Q41.41-50.15 40.6-50.2 39.79-50.24 39.26-50.39L39.26-50.39Q38.62-50.59 38.4-50.78 38.18-50.98 37.5-50.98L37.5-50.98Q36.91-50.98 36.33-50.85 35.74-50.73 35.16-50.73L35.16-50.73Q34.67-50.73 34.23-50.93 33.79-51.12 33.3-51.12L33.3-51.12Q32.76-51.12 32.3-50.78 31.84-50.44 31.2-50.59L31.2-50.59Q30.91-50.34 30.88-50.2 30.86-50.05 30.81-49.98 30.76-49.9 30.57-49.9L30.57-49.9 29.88-49.9Q28.86-49.9 27.81-49.61 26.76-49.32 25.93-48.63L25.93-48.63Q25.78-48.68 25.66-48.71 25.54-48.73 25.39-48.73L25.39-48.73Q24.56-48.73 23.8-48.27 23.05-47.8 22.12-47.8L22.12-47.8Q21.53-47.22 20.7-46.88 19.87-46.53 19.02-46.22 18.16-45.9 17.43-45.48 16.7-45.07 16.31-44.29L16.31-44.29Q16.26-43.9 16.55-43.8 16.85-43.7 16.85-43.31L16.85-43.31Q16.85-42.97 16.72-42.48 16.6-41.99 16.6-41.5L16.6-41.5Q16.6-40.38 16.85-39.31 17.09-38.23 17.33-37.11L17.33-37.11Q17.09-36.96 16.99-36.67 16.89-36.38 16.65-36.23L16.65-36.23Q17.33-34.18 17.33-32.03L17.33-32.03Q17.33-30.32 16.97-28.69 16.6-27.05 16.46-25.34L16.46-25.34 16.46-25.29Q16.46-25 16.65-24.9 16.85-24.8 16.85-24.56L16.85-24.56Q16.85-24.41 16.8-24.32L16.8-24.32Q16.26-21 15.75-17.68 15.23-14.36 14.89-10.99L14.89-10.99 15.28-10.99Q16.55-10.99 17.55-11.74 18.55-12.5 19.24-13.43L19.24-13.43 20.02-13.43Q23.54-16.5 26.78-19.78 30.03-23.05 32.96-26.81L32.96-26.81Q33.35-26.81 33.5-27 33.64-27.2 33.98-27.29L33.98-27.29Q35.01-28.71 36.13-30.1 37.26-31.49 38.57-32.76L38.57-32.76Q38.62-33.25 38.84-33.64 39.06-34.03 39.31-34.38 39.55-34.72 39.75-35.11 39.94-35.5 39.94-36.04L39.94-36.04Q40.19-36.13 40.48-36.25 40.77-36.38 41.02-36.62L41.02-36.62Q41.11-37.11 41.36-37.5 41.6-37.89 41.6-38.38L41.6-38.38Q41.6-38.57 41.5-38.87L41.5-38.87Q42.29-39.21 42.72-39.99 43.16-40.77 43.41-41.72 43.65-42.68 43.77-43.65 43.9-44.63 44.14-45.36ZM76.76-31.05L76.76-31.05 76.76-30.86Q76.41-30.76 76.41-30.37L76.41-30.37Q75.88-30.13 75.29-30 74.7-29.88 74.17-29.64L74.17-29.64Q73.63-29.69 73.07-29.71 72.51-29.74 71.97-29.74L71.97-29.74Q70.51-29.74 69.04-29.64 67.58-29.54 66.11-29.64L66.11-29.64Q65.43-29.25 64.62-29.03 63.82-28.81 63.08-28.81L63.08-28.81Q62.5-28.81 62.06-28.96L62.06-28.96Q60.89-28.37 59.49-27.98 58.1-27.59 56.69-27.22 55.27-26.86 53.98-26.39 52.68-25.93 51.71-25.1L51.71-25.1Q51.61-24.41 51.56-23.75 51.51-23.1 51.51-22.46L51.51-22.46Q51.51-21.78 51.58-21.19 51.66-20.61 51.9-20.02L51.9-20.02Q52.15-19.92 52.46-19.87 52.78-19.82 53.02-19.82L53.02-19.82Q53.27-19.82 53.51-19.9 53.76-19.97 53.85-20.21L53.85-20.21Q54.59-20.31 55.32-20.29 56.05-20.26 56.78-20.26L56.78-20.26Q57.52-20.26 58.23-20.31 58.93-20.36 59.62-20.56L59.62-20.56Q60.4-20.75 61.15-20.8 61.91-20.85 62.64-20.9 63.38-20.95 64.16-21.07 64.94-21.19 65.77-21.58L65.77-21.58Q66.4-21.34 67.06-21.34 67.72-21.34 68.36-21.24L68.36-21.24Q68.7-21 68.92-20.7 69.14-20.41 69.14-20.02L69.14-20.02Q69.14-19.34 68.65-18.65 68.16-17.97 67.87-17.38L67.87-17.38 67.33-17.38Q66.16-17.38 65.06-17.07 63.96-16.75 62.86-16.33 61.77-15.92 60.67-15.6 59.57-15.28 58.4-15.28L58.4-15.28Q58.2-15.28 58.18-15.06 58.15-14.84 58.05-14.75L58.05-14.75Q57.81-14.79 57.32-14.79L57.32-14.79Q56.2-14.79 55.17-14.55 54.15-14.31 53.07-14.31L53.07-14.31Q52.78-14.31 52.49-14.33 52.19-14.36 51.9-14.4L51.9-14.4Q51.66-14.01 51.27-13.89 50.88-13.77 50.53-13.48L50.53-13.48Q50.39-13.04 50.36-12.4 50.34-11.77 50.31-11.11 50.29-10.45 50.19-9.86 50.1-9.28 49.8-8.94L49.8-8.94Q49.85-8.69 50.19-8.76 50.53-8.84 50.53-8.45L50.53-8.45Q50.53-8.01 50.44-7.52 50.34-7.03 50.34-6.54L50.34-6.54Q50.34-5.62 50.56-4.52 50.78-3.42 51.24-2.49 51.71-1.56 52.49-0.95 53.27-0.34 54.44-0.34L54.44-0.34Q55.22-0.34 55.91-0.63 56.59-0.93 57.03-1.61L57.03-1.61 57.27-1.66Q57.47-1.66 57.64-1.61 57.81-1.56 58.01-1.56L58.01-1.56Q58.3-1.56 58.76-1.93 59.23-2.29 59.79-2.78 60.35-3.27 60.94-3.74 61.52-4.2 62.06-4.39L62.06-4.39Q62.4-5.08 62.72-5.76 63.03-6.45 63.67-6.84L63.67-6.84 63.67-8.25Q64.16-8.79 64.72-9.23 65.28-9.67 65.57-10.35L65.57-10.35Q65.82-10.25 66.04-10.21 66.26-10.16 66.5-10.16L66.5-10.16Q66.75-10.16 67.01-10.21 67.28-10.25 67.53-10.35L67.53-10.35Q67.92-9.81 68.14-9.16 68.36-8.5 68.7-7.91L68.7-7.91Q68.26-7.03 67.67-5.81 67.09-4.59 66.4-3.37 65.72-2.15 64.96-1.05 64.21 0.05 63.47 0.63L63.47 0.63Q63.33 0.78 62.84 0.98L62.84 0.98Q62.3 1.37 61.86 1.73 61.42 2.1 61.03 2.59L61.03 2.59Q59.62 3.03 58.32 3.76 57.03 4.49 55.76 5.18L55.76 5.18Q55.17 5.03 54.49 5.03L54.49 5.03Q53.9 5.03 53.32 5.1 52.73 5.18 52.05 5.18L52.05 5.18Q51.85 4.93 51.49 4.86 51.12 4.79 51.22 4.35L51.22 4.35Q49.56 4.25 48.53 3.44 47.51 2.64 46.8 1.46 46.09 0.29 45.65-1.07 45.21-2.44 44.72-3.71L44.72-3.71 44.72-3.86Q44.72-4.1 44.92-4.15 45.11-4.2 45.11-4.44L45.11-4.44Q45.11-4.54 45.07-4.59L45.07-4.59Q44.92-5.13 44.82-5.52 44.72-5.91 44.72-6.45L44.72-6.45Q44.72-7.23 44.82-7.98 44.92-8.74 44.92-9.52L44.92-9.52Q44.92-10.3 44.72-10.89L44.72-10.89Q44.92-11.13 45.04-11.55 45.16-11.96 45.21-12.4 45.26-12.84 45.29-13.28 45.31-13.72 45.41-14.06L45.41-14.06Q45.21-14.6 45.07-15.01 44.92-15.43 44.92-16.02L44.92-16.02 44.92-16.36Q45.41-17.19 45.75-18.07 46.09-18.95 46.48-19.87L46.48-19.87 46.48-20.02Q46.48-21.44 46.38-22.85 46.29-24.27 46.29-25.68L46.29-25.68 46.29-26.61Q46.29-27.1 46.34-27.54L46.34-27.54Q46.73-27.73 46.92-28.08 47.12-28.42 47.51-28.61L47.51-28.61 49.12-28.61 49.41-29.1Q49.56-29.35 49.61-29.64L49.61-29.64Q50.14-29.79 50.66-30.05 51.17-30.32 51.61-30.62L51.61-30.62Q52.29-31.01 52.85-31.32 53.42-31.64 53.98-31.86 54.54-32.08 55.17-32.23 55.81-32.37 56.64-32.47L56.64-32.47Q57.03-32.47 57.15-32.62 57.27-32.76 57.52-32.96L57.52-32.96Q58.1-32.86 58.69-32.79 59.27-32.71 59.86-32.71L59.86-32.71Q61.03-32.71 62.06-33.15L62.06-33.15Q63.52-33.15 64.96-33.2 66.4-33.25 67.87-33.25L67.87-33.25Q69.14-33.25 70.41-33.15 71.68-33.06 72.9-32.81L72.9-32.81Q73.34-32.96 73.87-32.96L73.87-32.96Q74.46-32.96 75.07-32.84 75.68-32.71 76.27-32.81L76.27-32.81Q76.32-32.28 76.54-31.91 76.76-31.54 76.76-31.05ZM116.3-31.4L116.45-31.4Q116.25-30.76 115.82-30.22L115.82-30.22 114.99-29.2Q114.59-28.71 114.33-28.15 114.06-27.59 114.16-26.86L114.16-26.86Q114.06-26.86 113.91-26.88 113.76-26.9 113.67-26.9L113.67-26.9Q112.89-26.9 112.47-26.54 112.06-26.17 111.37-25.93L111.37-25.93Q111.27-26.22 111.13-26.49 110.98-26.76 110.69-26.86L110.69-26.86Q109.52-26.61 108.34-26.49 107.17-26.37 106-26.17L106-26.17Q105.46-26.07 104.93-25.9 104.39-25.73 103.8-25.59L103.8-25.59Q103.51-25.49 103.17-25.51 102.83-25.54 102.49-25.49L102.49-25.49Q101.31-25.44 99.95-25.32 98.58-25.2 97.5-24.56L97.5-24.56Q97.02-24.66 96.48-24.71 95.94-24.76 95.41-24.76L95.41-24.76Q94.23-24.76 92.84-24.54 91.45-24.32 90.38-23.68L90.38-23.68Q90.13-23.78 89.86-23.83 89.59-23.88 89.25-23.88L89.25-23.88Q89.16-23.88 89.11-23.85 89.06-23.83 88.96-23.83L88.96-23.83Q88.91-23.39 89.08-22.97 89.25-22.56 89.69-22.31L89.69-22.31Q89.5-21.78 89.5-21.14L89.5-21.14Q89.5-20.31 89.62-19.48 89.74-18.65 89.74-17.82L89.74-17.82Q89.74-16.89 89.5-16.36L89.5-16.36Q89.99-14.89 89.99-13.23L89.99-13.23Q89.99-12.65 89.91-12.08 89.84-11.52 89.84-10.89L89.84-10.89Q89.84-10.35 90.23-10.03 90.62-9.72 90.62-9.18L90.62-9.18Q90.62-8.98 90.52-8.79L90.52-8.79Q91.21-8.94 91.84-9.2 92.48-9.47 93.16-9.47L93.16-9.47Q93.55-9.47 93.92-9.33 94.28-9.18 94.58-8.94L94.58-8.94Q94.53-8.69 94.5-8.4 94.48-8.11 94.48-7.81L94.48-7.81Q94.48-7.28 94.5-6.81 94.53-6.35 94.58-5.81L94.58-5.81Q94.18-5.13 93.67-4.59 93.16-4.05 92.96-3.22L92.96-3.22Q92.23-3.22 91.67-2.91 91.11-2.59 90.62-2.22 90.13-1.86 89.64-1.54 89.16-1.22 88.57-1.22L88.57-1.22Q87.84-1.22 87.54-1.44 87.25-1.66 87.1-1.9 86.96-2.15 86.84-2.34 86.71-2.54 86.32-2.49L86.32-2.49Q86.23-3.13 85.93-3.69 85.64-4.25 85.32-4.79 85-5.32 84.69-5.88 84.37-6.45 84.22-7.03L84.22-7.03Q83.93-8.3 83.98-9.67 84.03-11.04 83.54-12.3L83.54-12.3Q83.64-12.99 83.69-13.7 83.74-14.4 83.74-15.09L83.74-15.09Q83.74-16.46 83.66-17.8 83.59-19.14 83.54-20.56L83.54-20.56Q83.2-21 83.12-21.56 83.05-22.12 83-22.66L83-22.66Q82.86-22.8 82.69-22.95 82.51-23.1 82.47-23.34L82.47-23.34Q82.08-23.44 81.88-23.44L81.88-23.44Q81.2-23.44 80.73-23.12 80.27-22.8 79.88-22.8L79.88-22.8Q79.49-22.8 79.15-22.9 78.8-23 78.46-23L78.46-23Q78.17-23 78.14-22.88 78.12-22.75 77.92-22.66L77.92-22.66Q77.78-22.56 77.24-22.46 76.7-22.36 76.04-22.29 75.39-22.22 74.78-22.17 74.16-22.12 73.97-22.12L73.97-22.12Q73.19-22.12 72.77-22.44 72.36-22.75 71.77-23.14L71.77-23.14Q71.87-23.44 71.87-23.54L71.87-23.54Q71.87-24.02 71.58-24.34 71.28-24.66 71.28-24.9L71.28-24.9Q71.28-25.44 71.7-25.73 72.11-26.03 72.16-26.66L72.16-26.66Q73.29-27.15 74.46-27.39 75.63-27.64 76.85-27.78 78.07-27.93 79.27-28.13 80.46-28.32 81.64-28.76L81.64-28.76Q81.98-28.71 82.29-28.69 82.61-28.66 82.95-28.66L82.95-28.66Q84.42-28.66 85.86-28.98 87.3-29.3 88.81-29.3L88.81-29.3Q89.2-29.3 89.59-29.25 89.99-29.2 90.38-29.1L90.38-29.1Q92.33-29.39 94.26-29.74 96.19-30.08 98.24-30.32L98.24-30.32Q99.21-30.42 100.17-30.49 101.12-30.57 102.09-30.71L102.09-30.71Q102.44-30.76 102.61-30.88 102.78-31.01 102.78-31.4L102.78-31.4Q103.22-31.2 103.75-31.2L103.75-31.2Q104.58-31.2 105.37-31.49 106.15-31.79 106.98-31.79L106.98-31.79Q107.17-31.79 107.32-31.76 107.47-31.74 107.61-31.74L107.61-31.74Q107.95-31.74 107.98-32.06 108-32.37 108.44-32.47L108.44-32.47Q108.78-32.57 109.42-32.62 110.05-32.67 110.76-32.74 111.47-32.81 112.08-32.93 112.69-33.06 112.98-33.3L112.98-33.3 113.33-33.84Q114.2-33.79 114.62-33.08 115.03-32.37 115.08-31.54L115.08-31.54Q115.28-31.35 115.64-31.37 116.01-31.4 116.3-31.4L116.3-31.4ZM172.06-8.5L172.06-8.5Q171.97-7.76 171.55-7.37 171.14-6.98 170.6-6.64L170.6-6.64Q170.35-6.69 170.13-6.71 169.91-6.74 169.67-6.74L169.67-6.74Q168.16-6.79 166.81-6.35 165.47-5.91 164.06-5.71L164.06-5.71Q163.57-5.62 163.15-5.64 162.74-5.66 162.3-5.57L162.3-5.57Q160.73-5.32 158.98-5.18 157.22-5.03 155.46-4.81 153.7-4.59 152.02-4.27 150.33-3.96 148.87-3.37L148.87-3.37Q148.72-3.47 148.58-3.59 148.43-3.71 148.23-3.71L148.23-3.71Q147.75-3.71 147.31-3.56 146.87-3.42 146.43-3.47L146.43-3.47Q145.94-3.17 145.38-3.05 144.82-2.93 144.26-2.86 143.69-2.78 143.16-2.64 142.62-2.49 142.13-2.1L142.13-2.1Q141.74-2.29 141.18-2.32 140.62-2.34 140.42-2.69L140.42-2.69Q139.3-2.15 138.05-2 136.81-1.86 135.54-1.9L135.54-1.9Q134.71-1.95 133.64-2.15 132.56-2.34 131.49-2.71 130.41-3.08 129.48-3.59 128.56-4.1 128.07-4.83L128.07-4.83Q127.73-5.32 127.58-5.91 127.43-6.49 126.9-6.79L126.9-6.79Q127.04-7.91 127.24-8.98 127.43-10.06 127.63-11.18L127.63-11.18Q128.61-12.01 129.48-12.94 130.36-13.87 131.14-14.89L131.14-14.89Q132.07-15.33 132.88-15.97 133.68-16.6 134.49-17.26 135.3-17.92 136.1-18.55 136.91-19.19 137.83-19.68L137.83-19.68Q137.98-20.02 138.25-20.24 138.52-20.46 138.81-20.68 139.1-20.9 139.35-21.17 139.59-21.44 139.69-21.83L139.69-21.83Q141.4-22.85 142.67-24.41 143.94-25.98 144.33-27.93L144.33-27.93Q143.5-28.61 142.45-28.83 141.4-29.05 140.28-29.15L140.28-29.15Q139.3-29.2 138.25-29.15 137.2-29.1 136.13-29.2L136.13-29.2Q135.05-28.86 133.9-28.76 132.76-28.66 131.63-28.59 130.51-28.52 129.41-28.3 128.31-28.08 127.29-27.49L127.29-27.49Q127.09-27.49 126.92-27.54 126.75-27.59 126.56-27.59L126.56-27.59Q124.99-27.64 123.63-26.98 122.26-26.32 120.94-25.68L120.94-25.68Q120.84-25.49 120.84-25.39L120.84-25.39Q120.84-25.1 120.96-24.83 121.09-24.56 121.09-24.27L121.09-24.27Q121.04-24.22 121.04-24.17 121.04-24.12 120.99-24.07L120.99-24.07Q120.94-23.83 120.87-23.63 120.79-23.44 120.7-23.19L120.7-23.19Q120.16-21.63 120.11-20.12L120.11-20.12Q120.06-18.85 120.11-17.63 120.16-16.41 120.11-15.14L120.11-15.14Q120.01-13.57 119.62-12.21L119.62-12.21Q119.87-11.04 120.06-9.74 120.26-8.45 120.55-7.18 120.84-5.91 121.26-4.71 121.67-3.52 122.36-2.44L122.36-2.44Q122.31-2.34 122.4-2.29 122.5-2.25 122.6-2.25L122.6-2.25 122.99-2.25Q123.23-2.25 123.19-2.05L123.19-2.05Q123.28-1.9 123.33-1.78 123.38-1.66 123.53-1.56L123.53-1.56Q123.63-1.42 123.53-1.17L123.53-1.17Q123.48-0.2 123.04 0.63 122.6 1.46 122.5 2.44L122.5 2.44Q121.92 2.59 121.43 2.59L121.43 2.59Q120.6 2.54 119.96 2.12 119.33 1.71 118.79 1.12 118.25 0.54 117.77-0.07 117.28-0.68 116.69-1.12L116.69-1.12Q116.35-2.49 116.03-4.15 115.72-5.81 114.98-6.98L114.98-6.98Q115.18-7.42 115.18-8.06L115.18-8.06Q115.23-9.03 115.01-9.99 114.79-10.94 114.89-11.91L114.89-11.91Q114.89-12.45 115.01-12.99 115.13-13.53 115.18-14.06L115.18-14.06Q115.23-14.89 115.01-15.67 114.79-16.46 114.84-17.29L114.84-17.29Q114.89-17.68 115.01-18.04 115.13-18.41 115.37-18.7L115.37-18.7Q115.13-19.29 115.23-19.82L115.23-19.82Q115.28-20.65 115.42-21.39 115.57-22.12 115.62-22.85L115.62-22.85Q115.62-23.24 115.57-23.61 115.52-23.97 115.42-24.32L115.42-24.32 114.98-24.46Q114.69-24.46 114.42-24.32 114.15-24.17 113.96-23.97 113.76-23.78 113.62-23.66 113.47-23.54 113.32-23.54L113.32-23.54Q113.22-23.54 113.1-23.56 112.98-23.58 112.88-23.58L112.88-23.58Q112.79-23.58 112.52-23.39 112.25-23.19 111.88-22.97 111.52-22.75 111.17-22.53 110.83-22.31 110.64-22.27L110.64-22.27Q110.1-22.36 109.78-22.63 109.47-22.9 109.2-23.17 108.93-23.44 108.64-23.66 108.34-23.88 107.9-23.83L107.9-23.83Q107.76-24.12 107.73-24.46 107.71-24.8 107.76-25.15L107.76-25.15 107.76-25.93Q108.1-26.56 108.66-26.98 109.22-27.39 109.86-27.69L109.86-27.69 111.13-28.27Q111.76-28.56 112.3-29L112.3-29 112.74-29Q113.62-28.96 114.27-29.35 114.93-29.74 115.52-30.25 116.11-30.76 116.72-31.3 117.33-31.84 118.06-32.13L118.06-32.13Q118.6-31.88 119.18-31.71 119.77-31.54 120.4-31.49L120.4-31.49Q121.04-31.49 121.72-31.69 122.4-31.88 122.8-32.42L122.8-32.42Q123.04-32.32 123.21-32.3 123.38-32.28 123.63-32.28L123.63-32.28Q124.36-32.23 125.09-32.5 125.82-32.76 126.51-33.15L126.51-33.15Q127.48-33.11 128.43-33.28 129.39-33.45 130.34-33.64 131.29-33.84 132.24-34.01 133.2-34.18 134.17-34.13L134.17-34.13Q135.78-34.08 137.35-34.42 138.91-34.77 140.52-34.67L140.52-34.67Q141.64-34.62 142.74-34.5 143.84-34.38 144.96-34.42L144.96-34.42Q145.6-34.13 146.11-33.91 146.62-33.69 147.4-33.79L147.4-33.79Q148.97-32.47 150.24-30.71L150.24-30.71 150.24-29.88Q150.19-28.76 149.85-27.69 149.5-26.61 149.04-25.56 148.58-24.51 148.04-23.51 147.5-22.51 147.01-21.53L147.01-21.53Q143.84-18.65 140.67-15.82 137.49-12.99 134.12-10.35L134.12-10.35Q134.03-9.86 133.85-9.47 133.68-9.08 133.64-8.64L133.64-8.64Q133.64-8.4 133.68-8.25L133.68-8.25Q134.03-8.15 134.29-7.89 134.56-7.62 134.47-7.18L134.47-7.18 134.9-7.18Q135.15-7.18 135.15-6.98L135.15-6.98 135.93-6.93Q137.79-6.84 139.64-7.03 141.5-7.23 143.38-7.47 145.26-7.71 147.11-7.93 148.97-8.15 150.82-8.2L150.82-8.2Q151.26-8.35 151.75-8.45 152.24-8.54 152.63-8.84L152.63-8.84 152.78-8.84Q153.12-8.84 153.29-8.64 153.46-8.45 153.8-8.4L153.8-8.4Q154.05-8.4 154.31-8.5 154.58-8.59 154.88-8.64L154.88-8.64Q155.56-8.84 156.32-8.89 157.07-8.94 157.81-9.03L157.81-9.03Q160.64-9.28 163.42-9.35 166.2-9.42 168.99-10.06L168.99-10.06Q169.23-9.72 169.67-9.59 170.11-9.47 170.6-9.35 171.09-9.23 171.5-9.08 171.92-8.94 172.06-8.5ZM189.1-28.27L189.1-28.27Q188.81-27.83 188.76-27.29 188.71-26.76 188.71-26.32L188.71-26.32Q188.71-25.73 188.74-25.17 188.76-24.61 188.76-24.07L188.76-24.07 188.76-23.34Q188.66-23 188.47-22.66 188.27-22.31 188.17-21.97L188.17-21.97Q187.49-20.17 187.49-18.36L187.49-18.36 187.49-18.26Q187.25-17.68 187.03-17.19 186.81-16.7 186.61-16.24 186.42-15.77 186.32-15.26 186.22-14.75 186.27-14.06L186.27-14.06Q185.59-12.35 184.46-10.96 183.34-9.57 182.27-8.11L182.27-8.11Q181.24-7.71 180.39-7.08 179.53-6.45 178.75-5.66L178.75-5.66Q177.24-5.18 175.77-4.54 174.31-3.91 173.13-2.83L173.13-2.83Q172.21-2.73 171.28-2.54 170.35-2.34 169.47-1.95L169.47-1.95 168.89-1.95Q168.45-1.95 168.25-2.15L168.25-2.15Q167.62-1.81 166.93-1.68 166.25-1.56 165.57-1.56L165.57-1.56Q164.69-1.56 163.83-1.68 162.98-1.81 162.1-1.95L162.1-1.95Q161.61-2.64 160.73-3 159.85-3.37 159.17-3.71L159.17-3.71Q157.75-5.66 157.12-7.5 156.48-9.33 155.8-11.62L155.8-11.62Q155.9-12.3 156.14-12.96 156.39-13.62 156.34-14.4L156.34-14.4Q157.22-16.94 158.66-19.02 160.1-21.09 161.95-23L161.95-23Q161.95-23.29 162.07-23.49 162.2-23.68 162.1-24.07L162.1-24.07Q162.15-24.02 162.29-24.02L162.29-24.02Q162.69-24.02 162.78-24.24 162.88-24.46 162.83-24.76L162.83-24.76Q164.59-25.88 166.03-27.34 167.47-28.81 169.33-29.79L169.33-29.79Q169.47-30.22 169.81-30.52 170.16-30.81 170.35-31.2L170.35-31.2Q171.91-31.64 173.18-32.52 174.45-33.4 175.87-34.08L175.87-34.08Q176.65-34.52 177.36-34.69 178.07-34.86 178.9-35.06L178.9-35.06Q179.19-35.16 179.43-35.21 179.68-35.25 179.97-35.25L179.97-35.25Q180.85-35.25 181.68-34.94 182.51-34.62 183.39-34.62L183.39-34.62Q183.63-34.62 183.8-34.64 183.97-34.67 184.17-34.72L184.17-34.72Q185-33.69 186.27-33.15L186.27-33.15Q186.56-32.42 186.98-31.88 187.39-31.35 187.83-30.83 188.27-30.32 188.64-29.71 189-29.1 189.1-28.27ZM184.22-25.73L184.22-25.73Q184.22-25.98 184.17-26.17L184.17-26.17Q183.68-26.32 183.24-26.56 182.8-26.81 182.27-26.81L182.27-26.81Q181.92-26.81 181.58-26.66L181.58-26.66Q181.53-27 181.31-27.15 181.09-27.29 180.82-27.42 180.56-27.54 180.29-27.61 180.02-27.69 179.82-27.88L179.82-27.88Q179.68-28.27 179.51-28.69 179.34-29.1 178.9-29.3L178.9-29.3Q178.46-28.86 177.87-28.59 177.28-28.32 176.67-28.08 176.06-27.83 175.5-27.49 174.94-27.15 174.55-26.66L174.55-26.66 173.67-26.66Q173.38-26.12 172.84-25.85 172.3-25.59 171.91-25.1L171.91-25.1Q171.13-24.71 170.47-24.15 169.81-23.58 169.18-22.97 168.54-22.36 167.93-21.73 167.32-21.09 166.64-20.56L166.64-20.56Q166.01-19.19 165.25-18.19 164.49-17.19 163.83-16.16 163.17-15.14 162.71-13.94 162.25-12.74 162.25-10.99L162.25-10.99 162.25-10.5Q162.25-10.25 162.29-10.01L162.29-10.01Q162.93-9.33 163.34-8.54 163.76-7.76 164.74-7.42L164.74-7.42Q165.71-7.03 166.81-7.08 167.91-7.13 168.94-6.84L168.94-6.84Q171.28-7.28 173.45-8.28 175.62-9.28 177.58-10.69L177.58-10.69Q177.87-10.94 178.26-11.21 178.65-11.47 178.9-11.77L178.9-11.77Q179.14-12.01 179.31-12.3 179.48-12.6 179.68-12.84L179.68-12.84Q180.07-13.48 180.56-14.11 181.04-14.75 181.58-15.28L181.58-15.28Q181.83-16.36 182.22-17.36 182.61-18.36 183-19.34 183.39-20.31 183.66-21.34 183.93-22.36 183.93-23.49L183.93-23.49Q183.93-23.73 183.9-24.02 183.88-24.32 183.83-24.56L183.83-24.56Q184.22-25.1 184.22-25.73ZM218.3-6.15L218.3-6.15Q218.3-5.32 217.88-4.71 217.47-4.1 217.57-3.22L217.57-3.22Q216.88-2.83 216.44-2.2 216-1.56 215.61-0.88L215.61-0.88Q212.39 1.22 208.7 2.51 205.02 3.81 201.11 3.81L201.11 3.81Q200.87 3.81 200.67 3.59 200.48 3.37 200.28 3.13 200.09 2.88 199.87 2.66 199.65 2.44 199.35 2.44L199.35 2.44Q199.01 2.44 198.82 2.59L198.82 2.59Q198.82 2.49 198.84 2.42 198.86 2.34 198.86 2.25L198.86 2.25Q198.86 1.66 198.72 1.05 198.57 0.44 198.57-0.15L198.57-0.15Q198.57-0.83 198.82-1.27L198.82-1.27 199.4-1.27Q199.89-1.27 200.35-1.34 200.82-1.42 201.35-1.42L201.35-1.42Q201.89-1.42 202.33-1.12L202.33-1.12Q205.02-1.22 207.43-2.12 209.85-3.03 212.34-3.91L212.34-3.91Q212.73-4.44 212.8-5.1 212.88-5.76 213.17-6.35L213.17-6.35Q211.9-7.42 210.61-8.03 209.31-8.64 207.6-8.45L207.6-8.45Q206.58-9.08 205.43-9.18 204.28-9.28 203.11-9.47L203.11-9.47Q202.82-9.52 202.5-9.59 202.18-9.67 201.84-9.67L201.84-9.67Q201.6-9.67 201.38-9.55 201.16-9.42 201.26-9.18L201.26-9.18Q201.01-9.57 200.6-9.64 200.18-9.72 199.89-10.01L199.89-10.01Q198.33-10.11 197.16-10.57 195.98-11.04 194.57-11.62L194.57-11.62Q194.18-11.77 193.81-11.84 193.44-11.91 193.1-12.11L193.1-12.11Q192.22-12.55 191.69-13.28 191.15-14.01 190.83-14.92 190.51-15.82 190.37-16.8 190.22-17.77 190.08-18.6L190.08-18.6Q190.51-19.38 190.88-20.21 191.25-21.04 191.49-21.97L191.49-21.97Q191.78-22.12 192.08-22.22 192.37-22.31 192.71-22.46L192.71-22.46Q192.66-22.56 192.66-22.71L192.66-22.71Q192.66-22.95 192.83-23.19 193.01-23.44 192.91-23.68L192.91-23.68Q193.98-24.66 194.98-25.71 195.98-26.76 196.72-28.03L196.72-28.03Q197.45-28.27 197.89-28.76 198.33-29.25 198.77-29.76 199.21-30.27 199.74-30.69 200.28-31.1 201.11-31.2L201.11-31.2Q201.31-31.54 201.65-31.76 201.99-31.98 202.33-32.18 202.67-32.37 202.97-32.62 203.26-32.86 203.41-33.3L203.41-33.3Q204.19-33.3 204.85-33.59 205.51-33.89 206.14-34.23 206.77-34.57 207.43-34.86 208.09-35.16 208.87-35.16L208.87-35.16Q209.07-35.16 209.26-35.13 209.46-35.11 209.7-35.06L209.7-35.06Q210.05-34.72 210.17-34.25 210.29-33.79 210.34-33.25 210.39-32.71 210.41-32.18 210.44-31.64 210.58-31.2L210.58-31.2Q210.14-30.37 209.63-29.54 209.12-28.71 208.29-28.27L208.29-28.27 208.19-28.27Q207.85-28.22 207.56-28.42 207.26-28.61 206.87-28.61L206.87-28.61Q206.63-28.61 206.48-28.47L206.48-28.47 206.24-28.22Q206.14-28.13 205.97-28.03 205.8-27.93 205.51-28.03L205.51-28.03Q204.82-27.78 204.97-27.2L204.97-27.2Q204.04-27.1 203.41-26.64 202.77-26.17 202.23-25.61 201.7-25.05 201.16-24.58 200.62-24.12 199.89-24.07L199.89-24.07Q199.06-22.61 197.86-21.48 196.67-20.36 195.89-18.95L195.89-18.95Q196.03-18.55 196.08-18.12 196.13-17.68 196.23-17.19L196.23-17.19Q196.67-16.6 197.28-16.16 197.89-15.72 198.47-15.28L198.47-15.28 198.62-15.28Q199.6-15.28 200.43-14.92 201.26-14.55 202.18-14.55L202.18-14.55Q202.67-14.55 203.01-14.75L203.01-14.75Q204.28-14.45 205.53-14.26 206.77-14.06 208.04-13.96L208.04-13.96Q208.68-13.87 209.34-13.87 210-13.87 210.58-13.72L210.58-13.72Q211.12-13.57 211.66-13.35 212.19-13.13 212.73-12.89L212.73-12.89Q213.85-12.4 214.86-11.82 215.86-11.23 216.64-10.42 217.42-9.62 217.86-8.57 218.3-7.52 218.3-6.15ZM281.13-1.81L281.13-1.81Q281.13-1.32 281.09-1.07L281.09-1.07Q280.84-0.98 280.7-0.81 280.55-0.63 280.21-0.68L280.21-0.68Q280.11 0.05 279.72 0.54 279.33 1.03 278.91 1.44 278.5 1.86 278.11 2.32 277.72 2.78 277.62 3.52L277.62 3.52Q276.89 3.91 276.18 4.57 275.47 5.22 274.93 5.47L274.93 5.47Q274.54 5.66 274.1 5.79 273.66 5.91 273.22 6.1L273.22 6.1Q271.81 6.74 270.32 7.42 268.83 8.11 267.22 8.11L267.22 8.11 266.88 8.11Q266.68 8.3 266.39 8.37 266.1 8.45 265.8 8.5 265.51 8.54 265.22 8.64 264.92 8.74 264.78 8.94L264.78 8.94Q264.24 8.74 263.61 8.74L263.61 8.74 263.26 8.74Q262.43 8.94 261.7 9.03 260.97 9.13 260.14 9.13L260.14 9.13Q258.67 9.13 257.21 8.94 255.74 8.74 254.28 8.59L254.28 8.59Q253.35 7.86 252.77 6.76 252.18 5.66 252.18 4.44L252.18 4.44Q252.18 3.52 252.57 2.71 252.96 1.9 253.6 1.27L253.6 1.27 253.74 1.27Q254.18 1.27 254.65 1.07 255.11 0.88 255.55 0.88L255.55 0.88Q256.04 0.88 256.35 1.27 256.67 1.66 256.84 2.2 257.01 2.73 257.06 3.3 257.11 3.86 257.11 4.2L257.11 4.2Q257.65 4.44 258.26 4.49 258.87 4.54 259.5 4.54L259.5 4.54Q260.14 4.54 260.92 4.47 261.7 4.39 262.51 4.22 263.31 4.05 264.07 3.81 264.83 3.56 265.36 3.17L265.36 3.17Q268.05 2.93 270.1 1.95 272.15 0.98 274.45-0.34L274.45-0.34Q274.54-0.88 274.86-1.2 275.18-1.51 275.18-2.15L275.18-2.15Q275.18-2.25 275.15-2.37 275.13-2.49 275.13-2.59L275.13-2.59Q274.15-3.81 273.1-4.74 272.05-5.66 270.39-5.96L270.39-5.96Q270.2-6.4 269.76-6.62 269.32-6.84 268.83-7.03 268.34-7.23 267.9-7.45 267.46-7.67 267.27-8.2L267.27-8.2Q265.95-8.45 264.56-8.81 263.17-9.18 262.19-10.16L262.19-10.16Q261.41-10.21 260.7-10.47 259.99-10.74 259.31-11.01 258.63-11.28 257.89-11.5 257.16-11.72 256.38-11.72L256.38-11.72Q256.18-12.06 255.84-12.26 255.5-12.45 255.09-12.6 254.67-12.74 254.3-12.92 253.94-13.09 253.74-13.43L253.74-13.43Q253.55-13.38 253.45-13.23 253.35-13.09 253.11-13.09L253.11-13.09 252.91-13.09Q252.81-13.38 252.52-13.5 252.23-13.62 252.18-14.01L252.18-14.01Q251.3-14.06 250.59-14.36 249.88-14.65 249.27-15.01 248.66-15.38 248.03-15.72 247.39-16.06 246.61-16.26L246.61-16.26Q246.13-16.65 245.71-17.11 245.3-17.58 244.66-17.58L244.66-17.58Q244.51-17.58 244.12-17.48L244.12-17.48Q244.03-18.36 243.39-18.73 242.76-19.09 242.02-19.38L242.02-19.38Q241.54-20.65 240.71-21.63 239.88-22.61 238.9-23.44L238.9-23.44Q239-23.73 239-23.88L239-23.88Q239-24.37 238.75-24.73 238.51-25.1 238.21-25.34L238.21-25.34Q237.53-27.54 237.53-29.64L237.53-29.64Q237.53-32.57 238.83-35.08 240.12-37.6 242.9-38.87L242.9-38.87Q242.95-39.26 243.17-39.55 243.39-39.84 243.44-40.23L243.44-40.23Q243.88-40.23 244.12-40.43 244.37-40.63 244.59-40.84 244.81-41.06 245.05-41.26 245.3-41.46 245.69-41.5L245.69-41.5Q247.54-43.12 249.64-44.12 251.74-45.12 253.94-46.19L253.94-46.19Q254.38-46.39 254.67-46.92L254.67-46.92 254.96-46.92Q255.45-46.92 255.72-47.14 255.99-47.36 256.53-47.27L256.53-47.27Q256.72-47.56 257.04-47.66 257.36-47.75 257.67-47.83 257.99-47.9 258.28-48.05 258.58-48.19 258.67-48.49L258.67-48.49 259.02-48.49Q259.85-48.49 260.63-48.75 261.41-49.02 262.19-49.37L262.19-49.37 262.53-49.37Q263.51-49.37 264.36-49.73 265.22-50.1 266.19-50.24L266.19-50.24Q266.58-50.34 266.97-50.29 267.37-50.24 267.76-50.24L267.76-50.24Q268-50.24 268.34-50.29 268.68-50.34 268.83-50.59L268.83-50.59 268.93-50.59Q269.22-50.59 269.27-50.39 269.32-50.2 269.56-50.2L269.56-50.2Q269.9-50.2 270.25-50.29 270.59-50.39 270.93-50.39L270.93-50.39Q272.39-50.39 273.84-50.1 275.28-49.8 276.69-49.56L276.69-49.56Q276.79-48.97 277.2-48.73 277.62-48.49 278.11-48.29L278.11-48.29 278.11-48.1Q278.11-47.71 278.3-47.46L278.3-47.46Q278.11-46.78 277.62-46.44 277.13-46.09 276.55-45.85L276.55-45.85Q276.79-45.65 276.84-45.31 276.89-44.97 276.89-44.68L276.89-44.68 276.89-44.09 276.64-44.14Q275.86-44.14 275.86-43.41L275.86-43.41Q275.23-43.8 274.47-43.9 273.71-43.99 272.98-43.99L272.98-43.99Q272-43.99 270.93-43.92 269.86-43.85 268.83-43.95L268.83-43.95Q268.44-43.46 267.85-43.24 267.27-43.02 266.68-43.02L266.68-43.02Q266.05-43.02 265.46-43.29 264.88-43.55 264.63-44.09L264.63-44.09Q264.39-44.19 264.19-44.19L264.19-44.19 263.75-44.19Q262.97-44.19 262.21-44.02 261.46-43.85 260.68-43.63 259.89-43.41 259.14-43.19 258.38-42.97 257.6-42.92L257.6-42.92Q257.31-42.53 256.82-42.38 256.33-42.24 256.04-41.85L256.04-41.85Q255.01-41.65 254.18-41.19 253.35-40.72 252.57-40.19L252.57-40.19 251.06-39.16Q250.32-38.67 249.4-38.33L249.4-38.33Q248.71-37.6 248.13-37.16 247.54-36.72 246.61-36.38L246.61-36.38Q246.03-36.18 245.95-35.79 245.88-35.4 245.54-35.01L245.54-35.01Q245.25-34.67 244.83-34.5 244.42-34.33 244.12-33.94L244.12-33.94Q243.88-33.59 243.76-33.13 243.63-32.67 243.49-32.23 243.34-31.79 243.15-31.37 242.95-30.96 242.56-30.66L242.56-30.66Q242.56-30.47 242.54-30.27 242.51-30.08 242.51-29.93L242.51-29.93Q242.51-29.25 242.68-28.54 242.85-27.83 242.9-27.15L242.9-27.15Q243.88-25.44 245.2-24.05 246.52-22.66 248.03-21.48 249.54-20.31 251.18-19.29 252.81-18.26 254.43-17.29L254.43-17.29Q255.01-17.33 255.5-17.16 255.99-16.99 256.53-16.94L256.53-16.94Q257.11-16.5 257.89-16.26L257.89-16.26 259.46-15.77Q260.24-15.53 260.97-15.21 261.7-14.89 262.19-14.36L262.19-14.36Q262.43-14.31 262.63-14.23 262.82-14.16 263.07-14.16L263.07-14.16Q263.36-14.16 263.41-14.36L263.41-14.36Q265.61-13.53 267.71-12.52 269.81-11.52 272.15-10.99L272.15-10.99Q273.08-10.21 274.2-9.62 275.32-9.03 276.45-8.42 277.57-7.81 278.6-7.1 279.62-6.4 280.4-5.42L280.4-5.42Q280.5-4.49 280.82-3.64 281.13-2.78 281.13-1.81ZM325.66-31.4L325.81-31.4Q325.61-30.76 325.18-30.22L325.18-30.22 324.35-29.2Q323.95-28.71 323.69-28.15 323.42-27.59 323.52-26.86L323.52-26.86Q323.42-26.86 323.27-26.88 323.12-26.9 323.03-26.9L323.03-26.9Q322.25-26.9 321.83-26.54 321.42-26.17 320.73-25.93L320.73-25.93Q320.63-26.22 320.49-26.49 320.34-26.76 320.05-26.86L320.05-26.86Q318.88-26.61 317.7-26.49 316.53-26.37 315.36-26.17L315.36-26.17Q314.82-26.07 314.29-25.9 313.75-25.73 313.16-25.59L313.16-25.59Q312.87-25.49 312.53-25.51 312.19-25.54 311.85-25.49L311.85-25.49Q310.67-25.44 309.31-25.32 307.94-25.2 306.86-24.56L306.86-24.56Q306.38-24.66 305.84-24.71 305.3-24.76 304.77-24.76L304.77-24.76Q303.59-24.76 302.2-24.54 300.81-24.32 299.74-23.68L299.74-23.68Q299.49-23.78 299.22-23.83 298.95-23.88 298.61-23.88L298.61-23.88Q298.52-23.88 298.47-23.85 298.42-23.83 298.32-23.83L298.32-23.83Q298.27-23.39 298.44-22.97 298.61-22.56 299.05-22.31L299.05-22.31Q298.86-21.78 298.86-21.14L298.86-21.14Q298.86-20.31 298.98-19.48 299.1-18.65 299.1-17.82L299.1-17.82Q299.1-16.89 298.86-16.36L298.86-16.36Q299.35-14.89 299.35-13.23L299.35-13.23Q299.35-12.65 299.27-12.08 299.2-11.52 299.2-10.89L299.2-10.89Q299.2-10.35 299.59-10.03 299.98-9.72 299.98-9.18L299.98-9.18Q299.98-8.98 299.88-8.79L299.88-8.79Q300.57-8.94 301.2-9.2 301.84-9.47 302.52-9.47L302.52-9.47Q302.91-9.47 303.28-9.33 303.64-9.18 303.94-8.94L303.94-8.94Q303.89-8.69 303.86-8.4 303.84-8.11 303.84-7.81L303.84-7.81Q303.84-7.28 303.86-6.81 303.89-6.35 303.94-5.81L303.94-5.81Q303.54-5.13 303.03-4.59 302.52-4.05 302.32-3.22L302.32-3.22Q301.59-3.22 301.03-2.91 300.47-2.59 299.98-2.22 299.49-1.86 299-1.54 298.52-1.22 297.93-1.22L297.93-1.22Q297.2-1.22 296.9-1.44 296.61-1.66 296.46-1.9 296.32-2.15 296.2-2.34 296.07-2.54 295.68-2.49L295.68-2.49Q295.59-3.13 295.29-3.69 295-4.25 294.68-4.79 294.36-5.32 294.05-5.88 293.73-6.45 293.58-7.03L293.58-7.03Q293.29-8.3 293.34-9.67 293.39-11.04 292.9-12.3L292.9-12.3Q293-12.99 293.05-13.7 293.1-14.4 293.1-15.09L293.1-15.09Q293.1-16.46 293.02-17.8 292.95-19.14 292.9-20.56L292.9-20.56Q292.56-21 292.48-21.56 292.41-22.12 292.36-22.66L292.36-22.66Q292.22-22.8 292.05-22.95 291.87-23.1 291.83-23.34L291.83-23.34Q291.44-23.44 291.24-23.44L291.24-23.44Q290.56-23.44 290.09-23.12 289.63-22.8 289.24-22.8L289.24-22.8Q288.85-22.8 288.51-22.9 288.16-23 287.82-23L287.82-23Q287.53-23 287.5-22.88 287.48-22.75 287.28-22.66L287.28-22.66Q287.14-22.56 286.6-22.46 286.06-22.36 285.4-22.29 284.75-22.22 284.14-22.17 283.52-22.12 283.33-22.12L283.33-22.12Q282.55-22.12 282.13-22.44 281.72-22.75 281.13-23.14L281.13-23.14Q281.23-23.44 281.23-23.54L281.23-23.54Q281.23-24.02 280.94-24.34 280.64-24.66 280.64-24.9L280.64-24.9Q280.64-25.44 281.06-25.73 281.47-26.03 281.52-26.66L281.52-26.66Q282.65-27.15 283.82-27.39 284.99-27.64 286.21-27.78 287.43-27.93 288.63-28.13 289.82-28.32 291-28.76L291-28.76Q291.34-28.71 291.65-28.69 291.97-28.66 292.31-28.66L292.31-28.66Q293.78-28.66 295.22-28.98 296.66-29.3 298.17-29.3L298.17-29.3Q298.56-29.3 298.95-29.25 299.35-29.2 299.74-29.1L299.74-29.1Q301.69-29.39 303.62-29.74 305.55-30.08 307.6-30.32L307.6-30.32Q308.57-30.42 309.53-30.49 310.48-30.57 311.45-30.71L311.45-30.71Q311.8-30.76 311.97-30.88 312.14-31.01 312.14-31.4L312.14-31.4Q312.58-31.2 313.11-31.2L313.11-31.2Q313.94-31.2 314.73-31.49 315.51-31.79 316.34-31.79L316.34-31.79Q316.53-31.79 316.68-31.76 316.83-31.74 316.97-31.74L316.97-31.74Q317.31-31.74 317.34-32.06 317.36-32.37 317.8-32.47L317.8-32.47Q318.14-32.57 318.78-32.62 319.41-32.67 320.12-32.74 320.83-32.81 321.44-32.93 322.05-33.06 322.34-33.3L322.34-33.3 322.69-33.84Q323.56-33.79 323.98-33.08 324.39-32.37 324.44-31.54L324.44-31.54Q324.64-31.35 325-31.37 325.37-31.4 325.66-31.4L325.66-31.4ZM349.39-7.91L349.39-7.91Q349.2-7.18 348.76-6.69 348.32-6.2 347.76-5.81 347.19-5.42 346.56-5.1 345.92-4.79 345.34-4.39L345.34-4.39 344.7-4.39Q342.65-4.39 341.55-5.4 340.46-6.4 339.87-7.89 339.28-9.38 339.02-11.08 338.75-12.79 338.36-14.21L338.36-14.21Q337.77-13.72 337.38-13.06 336.99-12.4 336.57-11.77 336.16-11.13 335.65-10.6 335.13-10.06 334.3-9.86L334.3-9.86Q334.16-9.52 333.99-9.18 333.82-8.84 333.77-8.45L333.77-8.45Q332.69-7.86 331.81-7.08 330.93-6.3 330.06-5.47 329.18-4.64 328.27-3.88 327.37-3.13 326.25-2.64L326.25-2.64Q326.2-2.69 326.05-2.69L326.05-2.69Q325.47-2.69 324.98-2.42 324.49-2.15 323.9-2.15L323.9-2.15Q323.51-2.15 323.2-2.29 322.88-2.44 322.56-2.64 322.24-2.83 321.9-2.93 321.56-3.03 321.17-2.98L321.17-2.98Q320.68-3.86 319.87-4.61 319.07-5.37 318.87-6.35L318.87-6.35Q318.78-6.79 318.75-7.25 318.73-7.71 318.63-8.2L318.63-8.2Q318.48-8.94 318.24-9.69 318-10.45 317.85-11.23L317.85-11.23Q318.09-12.55 318.31-14.14 318.53-15.72 318.85-17.31 319.17-18.9 319.73-20.34 320.29-21.78 321.17-22.8L321.17-22.8 321.12-23.14Q321.12-23.93 321.41-24.61 321.71-25.29 322.05-25.93 322.39-26.56 322.63-27.2 322.88-27.83 322.73-28.61L322.73-28.61Q323.32-28.91 323.95-29.1 324.59-29.3 325.27-29.3L325.27-29.3Q325.91-29.3 326.44-29.1L326.44-29.1Q326.34-28.71 326.78-28.61L326.78-28.61 326.78-28.47Q326.78-27.44 326.54-26.46 326.3-25.49 325.95-24.54 325.61-23.58 325.29-22.63 324.98-21.68 324.83-20.7L324.83-20.7Q324.64-20.65 324.56-20.51 324.49-20.36 324.44-20.21 324.39-20.07 324.29-19.97 324.2-19.87 324-19.87L324-19.87Q323.71-18.16 323.39-16.48 323.07-14.79 323.07-13.09L323.07-13.09Q323.07-12.06 323.27-10.99 323.46-9.91 324-8.94L324-8.94 324.2-8.98Q324.73-8.98 325.05-8.74 325.37-8.5 325.91-8.25L325.91-8.25Q326.3-8.35 326.64-8.52 326.98-8.69 326.93-9.13L326.93-9.13Q327.57-9.18 328-9.45 328.44-9.72 328.79-10.06L328.79-10.06 329.52-10.74Q329.91-11.08 330.45-11.23L330.45-11.23Q330.45-11.52 330.59-11.67L330.59-11.67 330.89-11.96Q331.03-12.11 331.11-12.28 331.18-12.45 331.13-12.79L331.13-12.79Q331.72-12.84 332.03-13.09 332.35-13.33 332.62-13.65 332.89-13.96 333.13-14.31 333.38-14.65 333.77-14.89L333.77-14.89Q334.11-15.63 334.72-16.85 335.33-18.07 335.94-19.38 336.55-20.7 337.01-21.9 337.48-23.1 337.48-23.73L337.48-23.73Q337.48-23.97 337.36-24.17 337.23-24.37 337.28-24.61L337.28-24.61 337.28-24.76Q337.67-25.24 337.99-25.83 338.31-26.42 338.67-26.95 339.04-27.49 339.48-27.93 339.92-28.37 340.6-28.61L340.6-28.61Q341.38-28.37 342.19-28.27 343-28.17 343.73-27.88L343.73-27.88Q343.78-26.66 343.97-25.05 344.17-23.44 344.66-22.31L344.66-22.31Q344.66-21.68 344.63-21.09 344.61-20.51 344.61-19.92L344.61-19.92Q344.61-18.95 344.68-17.92 344.75-16.89 345-16.02L345-16.02Q344.66-15.28 344.66-14.45L344.66-14.45Q344.66-13.33 345-12.33 345.34-11.33 345.49-10.21L345.49-10.21Q346.12-9.33 347.15-9.33L347.15-9.33Q347.39-9.33 347.56-9.38 347.73-9.42 347.93-9.52L347.93-9.52Q348.32-9.08 348.63-8.67 348.95-8.25 349.39-7.91ZM383.81-24.07L383.81-24.07Q383.81-23.58 383.47-23.44 383.13-23.29 383.13-22.85L383.13-22.85Q383.13-22.71 383.23-22.61 383.32-22.51 383.32-22.31L383.32-22.31 383.32-22.12Q382.74-19.29 381.64-17.19 380.54-15.09 379.08-13.33 377.61-11.57 375.78-10.01 373.95-8.45 371.85-6.74L371.85-6.74Q371.26-6.25 370.65-5.76 370.04-5.27 369.51-4.74L369.51-4.74 368.43-3.71Q368.38-3.66 367.89-3.49 367.41-3.32 367.31-3.27L367.31-3.27Q366.63-2.98 365.87-2.59 365.11-2.2 364.57-1.61L364.57-1.61Q363.6-1.61 362.91-1.32 362.23-1.03 361.4-0.54L361.4-0.54Q361.16-0.54 360.99-0.63 360.81-0.73 360.62-0.83 360.42-0.93 360.2-0.95 359.98-0.98 359.64-0.88L359.64-0.88Q359.06-1.86 358.37-2.54 357.69-3.22 356.52-3.37L356.52-3.37Q356.37-4.2 355.83-4.66 355.3-5.13 354.76-5.66L354.76-5.66Q354.66-5.96 354.61-6.35 354.56-6.74 354.42-7.08 354.27-7.42 354.03-7.67 353.78-7.91 353.34-7.91L353.34-7.91Q353.3-8.2 353.59-8.2 353.88-8.2 353.88-8.45L353.88-8.45Q353.88-8.74 353.78-9.03 353.69-9.33 353.69-9.67L353.69-9.67Q353.69-9.91 353.73-10.11 353.78-10.3 353.88-10.55L353.88-10.55Q353.73-11.87 353.73-13.23L353.73-13.23Q353.73-15.87 354.1-18.43 354.47-21 354.47-23.63L354.47-23.63Q354.47-24.8 354.35-25.98 354.22-27.15 353.88-28.27L353.88-28.27Q352.76-28.03 351.64-27.71 350.51-27.39 349.54-26.86L349.54-26.86Q349-27.2 348.39-27.27 347.78-27.34 347.19-27.54L347.19-27.54Q346.85-28.22 346.85-28.96L346.85-28.96Q346.85-29.64 347.09-30.27L347.09-30.27 347.58-31.54Q348.75-31.79 349.9-32.28 351.05-32.76 352.22-33.15L352.22-33.15Q352.61-33.25 353.22-33.4 353.83-33.54 354.08-33.64L354.08-33.64Q354.42-33.79 354.54-34.2 354.66-34.62 354.91-34.91L354.91-34.91 355.74-34.91Q356.03-34.91 356.37-34.89 356.71-34.86 357.01-34.72L357.01-34.72Q358.76-35.16 360.52-35.28 362.28-35.4 364.14-35.64L364.14-35.64Q364.33-35.64 364.72-35.69L364.72-35.69 365.55-35.84Q365.99-35.94 366.36-36.01 366.72-36.08 366.87-36.08L366.87-36.08Q367.02-36.08 367.02-35.94L367.02-35.94 367.85-35.94Q369.95-35.94 371.95-35.4L371.95-35.4 375.95-34.33Q376.78-33.64 377.61-33.01 378.44-32.37 379.47-31.88L379.47-31.88Q379.71-31.1 380.22-30.64 380.74-30.18 381.37-29.64L381.37-29.64Q381.62-29 382.03-28.3 382.45-27.59 382.84-26.86 383.23-26.12 383.52-25.42 383.81-24.71 383.81-24.07ZM379.27-23.34L379.27-23.34Q378.73-24.46 378.25-25.68 377.76-26.9 377.03-27.88L377.03-27.88Q376.15-28.13 375.24-28.49 374.34-28.86 374-29.79L374-29.79Q373.9-29.74 373.66-29.74L373.66-29.74Q373.22-29.74 372.88-30.08 372.53-30.42 372.09-30.52L372.09-30.52Q371.7-30.57 371.04-30.66 370.39-30.76 369.65-30.81 368.92-30.86 368.21-30.91 367.5-30.96 367.11-30.96L367.11-30.96Q366.72-30.96 366.31-30.93 365.89-30.91 365.45-30.86L365.45-30.86Q365.06-30.86 364.97-30.74 364.87-30.62 364.57-30.52L364.57-30.52Q364.33-30.62 364.04-30.62L364.04-30.62 363.45-30.62Q362.43-30.62 361.43-30.3 360.42-29.98 359.45-29.44L359.45-29.44 359.45-29.25Q359.45-28.86 359.79-28.81 360.13-28.76 360.18-28.42L360.18-28.42Q359.94-28.42 359.79-28.39 359.64-28.37 359.64-28.03L359.64-28.03Q359.64-27.54 359.77-26.95 359.89-26.37 359.89-25.78L359.89-25.78Q359.89-25.34 359.79-24.76 359.69-24.17 359.3-23.83L359.3-23.83Q359.79-23.39 359.79-22.66L359.79-22.66Q359.79-22.17 359.59-21.63 359.4-21.09 359.11-20.7L359.11-20.7Q359.01-18.65 358.72-16.55 358.42-14.45 358.42-12.4L358.42-12.4Q358.42-11.38 358.54-10.4 358.67-9.42 358.96-8.45L358.96-8.45Q359.5-7.91 360.11-7.62 360.72-7.32 361.4-7.03L361.4-7.03 361.4-6.88Q361.4-6.74 361.21-6.59 361.01-6.45 361.01-6.2L361.01-6.2Q361.01-6.01 361.21-6.01L361.21-6.01Q363.26-6.59 365.06-7.42 366.87-8.25 368.43-9.67L368.43-9.67Q368.58-9.81 368.73-9.81L368.73-9.81Q368.82-9.81 368.99-9.77 369.16-9.72 369.31-9.67L369.31-9.67 369.26-9.86Q369.26-10.16 369.43-10.4 369.6-10.64 369.85-10.84L369.85-10.84 370.34-11.28Q370.58-11.52 370.73-11.77L370.73-11.77Q371.12-11.87 371.29-12.16 371.46-12.45 371.9-12.45L371.9-12.45Q372-12.99 372.44-13.26 372.88-13.53 372.97-14.06L372.97-14.06Q373.95-14.6 374.71-15.38 375.46-16.16 376.12-17.04 376.78-17.92 377.37-18.87 377.95-19.82 378.59-20.7L378.59-20.7 378.59-20.9Q378.59-21.68 378.86-22.17 379.13-22.66 379.27-23.34ZM396.51-6.69L396.51-6.69Q396.26-6.3 395.92-5.98 395.58-5.66 395.29-5.32L395.29-5.32Q394.94-5.18 394.53-5.18 394.11-5.18 393.75-5.2 393.38-5.22 393.06-5.2 392.75-5.18 392.55-4.98L392.55-4.98Q392.16-5.08 391.96-5.35 391.77-5.62 391.28-5.66L391.28-5.66Q391.09-5.71 390.89-5.66L390.89-5.66Q390.16-6.49 389.55-7.42 388.94-8.35 388.4-9.18L388.4-9.18Q388.35-10.99 388.11-12.84L388.11-12.84Q388.06-13.28 387.96-13.72 387.86-14.16 387.81-14.55L387.81-14.55Q387.81-15.04 387.89-15.5 387.96-15.97 388.01-16.36L388.01-16.36Q388.2-17.77 388.45-19.14 388.69-20.51 388.89-21.92L388.89-21.92Q389.08-23.19 389.08-24.58 389.08-25.98 388.64-27.2L388.64-27.2 388.6-27.44Q388.69-27.83 388.82-28.1 388.94-28.37 388.99-28.71L388.99-28.71Q389.08-29.25 388.74-29.49L388.74-29.49Q388.89-29.88 389.23-30 389.57-30.13 389.62-30.57L389.62-30.57Q389.67-30.76 389.62-30.96L389.62-30.96Q390.01-31.1 390.43-31.23 390.84-31.35 391.23-31.25L391.23-31.25Q391.87-31.15 392.36-30.83 392.84-30.52 393.28-30.13L393.28-30.13Q394.06-27.78 393.92-25.17 393.77-22.56 393.43-19.92 393.09-17.29 392.99-14.77 392.89-12.26 393.77-10.11L393.77-10.11 393.87-10.06Q394.11-10.01 394.26-10.23 394.41-10.45 394.65-10.4L394.65-10.4Q394.85-10.3 394.89-10.3L394.89-10.3Q395.09-9.33 395.53-8.45 395.97-7.57 396.51-6.69ZM432.05-28.27L432.05-28.27Q431.76-27.83 431.71-27.29 431.66-26.76 431.66-26.32L431.66-26.32Q431.66-25.73 431.68-25.17 431.71-24.61 431.71-24.07L431.71-24.07 431.71-23.34Q431.61-23 431.42-22.66 431.22-22.31 431.12-21.97L431.12-21.97Q430.44-20.17 430.44-18.36L430.44-18.36 430.44-18.26Q430.19-17.68 429.97-17.19 429.76-16.7 429.56-16.24 429.36-15.77 429.27-15.26 429.17-14.75 429.22-14.06L429.22-14.06Q428.53-12.35 427.41-10.96 426.29-9.57 425.21-8.11L425.21-8.11Q424.19-7.71 423.33-7.08 422.48-6.45 421.7-5.66L421.7-5.66Q420.18-5.18 418.72-4.54 417.26-3.91 416.08-2.83L416.08-2.83Q415.16-2.73 414.23-2.54 413.3-2.34 412.42-1.95L412.42-1.95 411.84-1.95Q411.4-1.95 411.2-2.15L411.2-2.15Q410.57-1.81 409.88-1.68 409.2-1.56 408.51-1.56L408.51-1.56Q407.64-1.56 406.78-1.68 405.93-1.81 405.05-1.95L405.05-1.95Q404.56-2.64 403.68-3 402.8-3.37 402.12-3.71L402.12-3.71Q400.7-5.66 400.07-7.5 399.43-9.33 398.75-11.62L398.75-11.62Q398.85-12.3 399.09-12.96 399.34-13.62 399.29-14.4L399.29-14.4Q400.17-16.94 401.61-19.02 403.05-21.09 404.9-23L404.9-23Q404.9-23.29 405.02-23.49 405.15-23.68 405.05-24.07L405.05-24.07Q405.1-24.02 405.24-24.02L405.24-24.02Q405.63-24.02 405.73-24.24 405.83-24.46 405.78-24.76L405.78-24.76Q407.54-25.88 408.98-27.34 410.42-28.81 412.27-29.79L412.27-29.79Q412.42-30.22 412.76-30.52 413.1-30.81 413.3-31.2L413.3-31.2Q414.86-31.64 416.13-32.52 417.4-33.4 418.82-34.08L418.82-34.08Q419.6-34.52 420.31-34.69 421.01-34.86 421.85-35.06L421.85-35.06Q422.14-35.16 422.38-35.21 422.63-35.25 422.92-35.25L422.92-35.25Q423.8-35.25 424.63-34.94 425.46-34.62 426.34-34.62L426.34-34.62Q426.58-34.62 426.75-34.64 426.92-34.67 427.12-34.72L427.12-34.72Q427.95-33.69 429.22-33.15L429.22-33.15Q429.51-32.42 429.93-31.88 430.34-31.35 430.78-30.83 431.22-30.32 431.59-29.71 431.95-29.1 432.05-28.27ZM427.17-25.73L427.17-25.73Q427.17-25.98 427.12-26.17L427.12-26.17Q426.63-26.32 426.19-26.56 425.75-26.81 425.21-26.81L425.21-26.81Q424.87-26.81 424.53-26.66L424.53-26.66Q424.48-27 424.26-27.15 424.04-27.29 423.77-27.42 423.51-27.54 423.24-27.61 422.97-27.69 422.77-27.88L422.77-27.88Q422.63-28.27 422.46-28.69 422.28-29.1 421.85-29.3L421.85-29.3Q421.41-28.86 420.82-28.59 420.23-28.32 419.62-28.08 419.01-27.83 418.45-27.49 417.89-27.15 417.5-26.66L417.5-26.66 416.62-26.66Q416.33-26.12 415.79-25.85 415.25-25.59 414.86-25.1L414.86-25.1Q414.08-24.71 413.42-24.15 412.76-23.58 412.13-22.97 411.49-22.36 410.88-21.73 410.27-21.09 409.59-20.56L409.59-20.56Q408.95-19.19 408.2-18.19 407.44-17.19 406.78-16.16 406.12-15.14 405.66-13.94 405.19-12.74 405.19-10.99L405.19-10.99 405.19-10.5Q405.19-10.25 405.24-10.01L405.24-10.01Q405.88-9.33 406.29-8.54 406.71-7.76 407.68-7.42L407.68-7.42Q408.66-7.03 409.76-7.08 410.86-7.13 411.88-6.84L411.88-6.84Q414.23-7.28 416.4-8.28 418.57-9.28 420.53-10.69L420.53-10.69Q420.82-10.94 421.21-11.21 421.6-11.47 421.85-11.77L421.85-11.77Q422.09-12.01 422.26-12.3 422.43-12.6 422.63-12.84L422.63-12.84Q423.02-13.48 423.51-14.11 423.99-14.75 424.53-15.28L424.53-15.28Q424.77-16.36 425.17-17.36 425.56-18.36 425.95-19.34 426.34-20.31 426.61-21.34 426.87-22.36 426.87-23.49L426.87-23.49Q426.87-23.73 426.85-24.02 426.83-24.32 426.78-24.56L426.78-24.56Q427.17-25.1 427.17-25.73Z" opacity="1" transform="matrix(1,0,0,1,0,0)" fill="#ffffff" class="wordmark-text-0" data-fill-palette-color="primary" id="text-0"></path></svg></g></svg></g></svg></g></svg></g><g></g></svg></g></svg></g></svg></g><g><path d="M78.623 96.343A122.216 122.216 0 0 1 316.897 96.343L313.558 96.343A118.876 118.876 0 0 0 81.962 96.343L78.623 96.343M78.623 150.857A122.216 122.216 0 0 0 316.897 150.857L313.558 150.857A118.876 118.876 0 0 1 81.962 150.857L78.623 150.857" fill="#ffffff" stroke="transparent" data-fill-palette-color="tertiary"></path></g></svg></g><defs></defs></svg><rect width="395.52" height="247.2" fill="none" stroke="none" visibility="hidden"></rect></g></svg></g></svg>